<svg version="1.1" id="Layer_1" xmlns="http://www.w3.org/2000/svg" xmlns:xlink="http://www.w3.org/1999/xlink" viewBox="0 0 512 512" xml:space="preserve">
  <style type="text/css">
    .st0{fill:#25D366;}
    .st1{fill:#FFFFFF;}
  </style>
  <circle class="st0" cx="256" cy="256" r="256"/>
  <path class="st1" d="M380.9,306.1c-5.8-2.9-34.2-16.8-39.5-18.7c-5.3-1.9-9.2-2.9-13.1,2.9c-3.9,5.8-15,18.7-18.4,22.6
    c-3.4,3.9-6.8,4.4-12.6,1.5c-5.8-2.9-24.6-9-46.9-28.8c-17.3-15.4-29-34.4-32.3-40.2c-3.4-5.8-0.4-8.9,2.5-11.7
    c2.6-2.6,5.8-6.8,8.7-10.2c2.9-3.4,3.9-5.8,5.8-9.7c1.9-3.9,1-7.3-0.5-10.2c-1.5-2.9-13.1-31.6-17.9-43.1
    c-4.7-11.3-9.5-9.8-13.1-9.8c-3.4-0.2-7.3-0.2-11.2-0.2c-3.9,0-10.2,1.5-15.5,6.8c-5.3,5.8-20.2,19.7-20.2,48
    c0,28.3,20.7,55.7,23.6,59.5c2.9,3.9,40.6,61.9,98.3,86.7c13.7,5.9,24.3,9.4,32.6,12c13.7,4.3,26.3,3.7,36.2,2.2
    c11-1.7,34.2-14,39.1-27.5c4.8-13.5,4.8-25.1,3.4-27.5C390.7,308.7,386.7,308.7,380.9,306.1z"/>
</svg>